%TF.GenerationSoftware,KiCad,Pcbnew,(6.0.4)*%
%TF.CreationDate,2022-04-23T23:35:32+05:30*%
%TF.ProjectId,led_20w,6c65645f-3230-4772-9e6b-696361645f70,rev?*%
%TF.SameCoordinates,Original*%
%TF.FileFunction,Copper,L1,Top*%
%TF.FilePolarity,Positive*%
%FSLAX46Y46*%
G04 Gerber Fmt 4.6, Leading zero omitted, Abs format (unit mm)*
G04 Created by KiCad (PCBNEW (6.0.4)) date 2022-04-23 23:35:32*
%MOMM*%
%LPD*%
G01*
G04 APERTURE LIST*
%ADD10C,0.300000*%
%TA.AperFunction,NonConductor*%
%ADD11C,0.300000*%
%TD*%
%TA.AperFunction,SMDPad,CuDef*%
%ADD12R,2.200000X1.800000*%
%TD*%
%TA.AperFunction,SMDPad,CuDef*%
%ADD13R,1.100000X1.800000*%
%TD*%
%TA.AperFunction,SMDPad,CuDef*%
%ADD14C,3.000000*%
%TD*%
%TA.AperFunction,Conductor*%
%ADD15C,1.063070*%
%TD*%
G04 APERTURE END LIST*
D10*
D11*
X117492857Y-114280000D02*
X117421428Y-114208571D01*
X117278571Y-113994285D01*
X117207142Y-113851428D01*
X117135714Y-113637142D01*
X117064285Y-113280000D01*
X117064285Y-112994285D01*
X117135714Y-112637142D01*
X117207142Y-112422857D01*
X117278571Y-112280000D01*
X117421428Y-112065714D01*
X117492857Y-111994285D01*
X117992857Y-112351428D02*
X118064285Y-112280000D01*
X118207142Y-112208571D01*
X118564285Y-112208571D01*
X118707142Y-112280000D01*
X118778571Y-112351428D01*
X118850000Y-112494285D01*
X118850000Y-112637142D01*
X118778571Y-112851428D01*
X117921428Y-113708571D01*
X118850000Y-113708571D01*
X121350000Y-113708571D02*
X120635714Y-113708571D01*
X120635714Y-112208571D01*
X121850000Y-112922857D02*
X122350000Y-112922857D01*
X122564285Y-113708571D02*
X121850000Y-113708571D01*
X121850000Y-112208571D01*
X122564285Y-112208571D01*
X123207142Y-113708571D02*
X123207142Y-112208571D01*
X123564285Y-112208571D01*
X123778571Y-112280000D01*
X123921428Y-112422857D01*
X123992857Y-112565714D01*
X124064285Y-112851428D01*
X124064285Y-113065714D01*
X123992857Y-113351428D01*
X123921428Y-113494285D01*
X123778571Y-113637142D01*
X123564285Y-113708571D01*
X123207142Y-113708571D01*
X125778571Y-113637142D02*
X125992857Y-113708571D01*
X126350000Y-113708571D01*
X126492857Y-113637142D01*
X126564285Y-113565714D01*
X126635714Y-113422857D01*
X126635714Y-113280000D01*
X126564285Y-113137142D01*
X126492857Y-113065714D01*
X126350000Y-112994285D01*
X126064285Y-112922857D01*
X125921428Y-112851428D01*
X125850000Y-112780000D01*
X125778571Y-112637142D01*
X125778571Y-112494285D01*
X125850000Y-112351428D01*
X125921428Y-112280000D01*
X126064285Y-112208571D01*
X126421428Y-112208571D01*
X126635714Y-112280000D01*
X127278571Y-112922857D02*
X127778571Y-112922857D01*
X127992857Y-113708571D02*
X127278571Y-113708571D01*
X127278571Y-112208571D01*
X127992857Y-112208571D01*
X129492857Y-113708571D02*
X128992857Y-112994285D01*
X128635714Y-113708571D02*
X128635714Y-112208571D01*
X129207142Y-112208571D01*
X129350000Y-112280000D01*
X129421428Y-112351428D01*
X129492857Y-112494285D01*
X129492857Y-112708571D01*
X129421428Y-112851428D01*
X129350000Y-112922857D01*
X129207142Y-112994285D01*
X128635714Y-112994285D01*
X130135714Y-113708571D02*
X130135714Y-112208571D01*
X130850000Y-112922857D02*
X131350000Y-112922857D01*
X131564285Y-113708571D02*
X130850000Y-113708571D01*
X130850000Y-112208571D01*
X131564285Y-112208571D01*
X132135714Y-113637142D02*
X132350000Y-113708571D01*
X132707142Y-113708571D01*
X132850000Y-113637142D01*
X132921428Y-113565714D01*
X132992857Y-113422857D01*
X132992857Y-113280000D01*
X132921428Y-113137142D01*
X132850000Y-113065714D01*
X132707142Y-112994285D01*
X132421428Y-112922857D01*
X132278571Y-112851428D01*
X132207142Y-112780000D01*
X132135714Y-112637142D01*
X132135714Y-112494285D01*
X132207142Y-112351428D01*
X132278571Y-112280000D01*
X132421428Y-112208571D01*
X132778571Y-112208571D01*
X132992857Y-112280000D01*
X133492857Y-114280000D02*
X133564285Y-114208571D01*
X133707142Y-113994285D01*
X133778571Y-113851428D01*
X133850000Y-113637142D01*
X133921428Y-113280000D01*
X133921428Y-112994285D01*
X133850000Y-112637142D01*
X133778571Y-112422857D01*
X133707142Y-112280000D01*
X133564285Y-112065714D01*
X133492857Y-111994285D01*
X135992857Y-112208571D02*
X135992857Y-112565714D01*
X135635714Y-112422857D02*
X135992857Y-112565714D01*
X136350000Y-112422857D01*
X135778571Y-112851428D02*
X135992857Y-112565714D01*
X136207142Y-112851428D01*
X138850000Y-113708571D02*
X137992857Y-113708571D01*
X138421428Y-113708571D02*
X138421428Y-112208571D01*
X138278571Y-112422857D01*
X138135714Y-112565714D01*
X137992857Y-112637142D01*
X139778571Y-112208571D02*
X139921428Y-112208571D01*
X140064285Y-112280000D01*
X140135714Y-112351428D01*
X140207142Y-112494285D01*
X140278571Y-112780000D01*
X140278571Y-113137142D01*
X140207142Y-113422857D01*
X140135714Y-113565714D01*
X140064285Y-113637142D01*
X139921428Y-113708571D01*
X139778571Y-113708571D01*
X139635714Y-113637142D01*
X139564285Y-113565714D01*
X139492857Y-113422857D01*
X139421428Y-113137142D01*
X139421428Y-112780000D01*
X139492857Y-112494285D01*
X139564285Y-112351428D01*
X139635714Y-112280000D01*
X139778571Y-112208571D01*
X143564285Y-114208571D02*
X143564285Y-112065714D01*
X145707142Y-112351428D02*
X145778571Y-112280000D01*
X145921428Y-112208571D01*
X146278571Y-112208571D01*
X146421428Y-112280000D01*
X146492857Y-112351428D01*
X146564285Y-112494285D01*
X146564285Y-112637142D01*
X146492857Y-112851428D01*
X145635714Y-113708571D01*
X146564285Y-113708571D01*
X147492857Y-112208571D02*
X147635714Y-112208571D01*
X147778571Y-112280000D01*
X147850000Y-112351428D01*
X147921428Y-112494285D01*
X147992857Y-112780000D01*
X147992857Y-113137142D01*
X147921428Y-113422857D01*
X147850000Y-113565714D01*
X147778571Y-113637142D01*
X147635714Y-113708571D01*
X147492857Y-113708571D01*
X147350000Y-113637142D01*
X147278571Y-113565714D01*
X147207142Y-113422857D01*
X147135714Y-113137142D01*
X147135714Y-112780000D01*
X147207142Y-112494285D01*
X147278571Y-112351428D01*
X147350000Y-112280000D01*
X147492857Y-112208571D01*
X148492857Y-112208571D02*
X148850000Y-113708571D01*
X149135714Y-112637142D01*
X149421428Y-113708571D01*
X149778571Y-112208571D01*
D12*
%TO.P,LED2,1*%
%TO.N,GND*%
X119468000Y-57912000D03*
D13*
%TO.P,LED2,2*%
%TO.N,Net-(LED1-Pad1)*%
X121708000Y-57912000D03*
%TD*%
%TO.P,LED3,2*%
%TO.N,+24V*%
X102487000Y-80772000D03*
D12*
%TO.P,LED3,1*%
%TO.N,Net-(LED3-Pad1)*%
X100247000Y-80772000D03*
%TD*%
%TO.P,LED4,1*%
%TO.N,GND*%
X88817000Y-80518000D03*
D13*
%TO.P,LED4,2*%
%TO.N,Net-(LED3-Pad1)*%
X91057000Y-80518000D03*
%TD*%
%TO.P,LED5,2*%
%TO.N,+24V*%
X102487000Y-98806000D03*
D12*
%TO.P,LED5,1*%
%TO.N,Net-(LED5-Pad1)*%
X100247000Y-98806000D03*
%TD*%
D13*
%TO.P,LED6,2*%
%TO.N,Net-(LED5-Pad1)*%
X91133000Y-98977000D03*
D12*
%TO.P,LED6,1*%
%TO.N,GND*%
X88893000Y-98977000D03*
%TD*%
%TO.P,LED7,1*%
%TO.N,Net-(LED10-Pad2)*%
X162985000Y-58166000D03*
D13*
%TO.P,LED7,2*%
%TO.N,+24V*%
X165225000Y-58166000D03*
%TD*%
D12*
%TO.P,LED8,1*%
%TO.N,Net-(LED8-Pad1)*%
X134029000Y-80264000D03*
D13*
%TO.P,LED8,2*%
%TO.N,+24V*%
X136269000Y-80264000D03*
%TD*%
D12*
%TO.P,LED9,1*%
%TO.N,GND*%
X119385000Y-80264000D03*
D13*
%TO.P,LED9,2*%
%TO.N,Net-(LED8-Pad1)*%
X121625000Y-80264000D03*
%TD*%
D12*
%TO.P,LED10,1*%
%TO.N,GND*%
X150285000Y-58166000D03*
D13*
%TO.P,LED10,2*%
%TO.N,Net-(LED10-Pad2)*%
X152525000Y-58166000D03*
%TD*%
%TO.P,LED15,2*%
%TO.N,+24V*%
X102570000Y-57912000D03*
D12*
%TO.P,LED15,1*%
%TO.N,Net-(LED15-Pad1)*%
X100330000Y-57912000D03*
%TD*%
%TO.P,LED1,1*%
%TO.N,Net-(LED1-Pad1)*%
X134029000Y-57912000D03*
D13*
%TO.P,LED1,2*%
%TO.N,+24V*%
X136269000Y-57912000D03*
%TD*%
D12*
%TO.P,LED22,1*%
%TO.N,Net-(LED22-Pad1)*%
X178137000Y-58166000D03*
D13*
%TO.P,LED22,2*%
%TO.N,+24V*%
X175897000Y-58166000D03*
%TD*%
D12*
%TO.P,LED23,1*%
%TO.N,Net-(LED22-Pad1)*%
X178054000Y-99314000D03*
D13*
%TO.P,LED23,2*%
%TO.N,GND*%
X175814000Y-99314000D03*
%TD*%
D12*
%TO.P,LED29,1*%
%TO.N,Net-(LED29-Pad1)*%
X162985000Y-80264000D03*
D13*
%TO.P,LED29,2*%
%TO.N,+24V*%
X165225000Y-80264000D03*
%TD*%
D12*
%TO.P,LED30,1*%
%TO.N,GND*%
X150285000Y-80264000D03*
D13*
%TO.P,LED30,2*%
%TO.N,Net-(LED29-Pad1)*%
X152525000Y-80264000D03*
%TD*%
D12*
%TO.P,LED36,1*%
%TO.N,Net-(LED36-Pad1)*%
X162985000Y-99314000D03*
D13*
%TO.P,LED36,2*%
%TO.N,+24V*%
X165225000Y-99314000D03*
%TD*%
D12*
%TO.P,LED37,1*%
%TO.N,GND*%
X150156000Y-99314000D03*
D13*
%TO.P,LED37,2*%
%TO.N,Net-(LED36-Pad1)*%
X152396000Y-99314000D03*
%TD*%
D12*
%TO.P,LED43,1*%
%TO.N,Net-(LED43-Pad1)*%
X134029000Y-99060000D03*
D13*
%TO.P,LED43,2*%
%TO.N,+24V*%
X136269000Y-99060000D03*
%TD*%
D12*
%TO.P,LED44,1*%
%TO.N,Net-(LED43-Pad1)*%
X121412000Y-99060000D03*
D13*
%TO.P,LED44,2*%
%TO.N,GND*%
X119172000Y-99060000D03*
%TD*%
D12*
%TO.P,LED16,1*%
%TO.N,GND*%
X88900000Y-57970000D03*
D13*
%TO.P,LED16,2*%
%TO.N,Net-(LED15-Pad1)*%
X91140000Y-57970000D03*
%TD*%
D14*
%TO.P,GND,1,1*%
%TO.N,GND*%
X183642000Y-85852000D03*
%TD*%
%TO.P,+VE,1,1*%
%TO.N,+24V*%
X183896000Y-71882000D03*
%TD*%
D15*
%TO.N,+24V*%
X165225000Y-75059000D02*
X170688000Y-69596000D01*
X165225000Y-80264000D02*
X165225000Y-75059000D01*
X165225000Y-58166000D02*
X170180000Y-58166000D01*
X170688000Y-69596000D02*
X170688000Y-58674000D01*
X170180000Y-58166000D02*
X175897000Y-58166000D01*
X170688000Y-58674000D02*
X170180000Y-58166000D01*
%TO.N,Net-(LED29-Pad1)*%
X152525000Y-80264000D02*
X162985000Y-80264000D01*
%TO.N,+24V*%
X136269000Y-57912000D02*
X139954000Y-57912000D01*
X139954000Y-57912000D02*
X146304000Y-51562000D01*
X146304000Y-51562000D02*
X175768000Y-51562000D01*
%TO.N,GND*%
X150285000Y-58166000D02*
X150285000Y-80264000D01*
X116078000Y-105918000D02*
X138938000Y-105918000D01*
X138938000Y-105918000D02*
X144018000Y-100838000D01*
X144018000Y-100838000D02*
X144018000Y-84074000D01*
X144018000Y-84074000D02*
X147828000Y-80264000D01*
X147828000Y-80264000D02*
X150285000Y-80264000D01*
X150156000Y-99314000D02*
X150156000Y-101277070D01*
X150156000Y-101277070D02*
X155050930Y-106172000D01*
X155050930Y-106172000D02*
X173482000Y-106172000D01*
X173482000Y-106172000D02*
X175768000Y-103886000D01*
%TO.N,+24V*%
X165225000Y-80264000D02*
X165225000Y-99314000D01*
%TO.N,Net-(LED36-Pad1)*%
X152396000Y-99314000D02*
X162985000Y-99314000D01*
%TO.N,GND*%
X150156000Y-99314000D02*
X150156000Y-80393000D01*
X150156000Y-80393000D02*
X150285000Y-80264000D01*
%TO.N,+24V*%
X136269000Y-80264000D02*
X136269000Y-99060000D01*
%TO.N,Net-(LED43-Pad1)*%
X121412000Y-99060000D02*
X134029000Y-99060000D01*
%TO.N,+24V*%
X136269000Y-57912000D02*
X136269000Y-80264000D01*
%TO.N,Net-(LED8-Pad1)*%
X121625000Y-80264000D02*
X134029000Y-80264000D01*
%TO.N,GND*%
X119468000Y-57912000D02*
X119468000Y-80181000D01*
X119468000Y-80181000D02*
X119385000Y-80264000D01*
%TO.N,Net-(LED1-Pad1)*%
X121708000Y-57912000D02*
X134029000Y-57912000D01*
%TO.N,+24V*%
X134112000Y-52578000D02*
X136398000Y-54864000D01*
X136398000Y-54864000D02*
X136269000Y-54993000D01*
X115570000Y-52578000D02*
X134112000Y-52578000D01*
X102570000Y-57912000D02*
X110236000Y-57912000D01*
X136269000Y-54993000D02*
X136269000Y-57912000D01*
X110236000Y-57912000D02*
X115570000Y-52578000D01*
%TO.N,Net-(LED15-Pad1)*%
X91140000Y-57970000D02*
X100272000Y-57970000D01*
X100272000Y-57970000D02*
X100330000Y-57912000D01*
%TO.N,+24V*%
X102570000Y-57912000D02*
X102570000Y-80689000D01*
X102570000Y-80689000D02*
X102487000Y-80772000D01*
X102487000Y-80772000D02*
X102487000Y-98806000D01*
%TO.N,GND*%
X119385000Y-80264000D02*
X119385000Y-98847000D01*
X119385000Y-98847000D02*
X119172000Y-99060000D01*
X88893000Y-98977000D02*
X88893000Y-100940070D01*
X88893000Y-100940070D02*
X93870930Y-105918000D01*
X93870930Y-105918000D02*
X116078000Y-105918000D01*
X119172000Y-102824000D02*
X119172000Y-99060000D01*
X116078000Y-105918000D02*
X119172000Y-102824000D01*
%TO.N,Net-(LED5-Pad1)*%
X100247000Y-98806000D02*
X91304000Y-98806000D01*
X91304000Y-98806000D02*
X91133000Y-98977000D01*
%TO.N,Net-(LED3-Pad1)*%
X91057000Y-80518000D02*
X99993000Y-80518000D01*
X99993000Y-80518000D02*
X100247000Y-80772000D01*
%TO.N,GND*%
X88817000Y-80518000D02*
X88817000Y-98901000D01*
X88817000Y-98901000D02*
X88893000Y-98977000D01*
X88900000Y-57970000D02*
X88900000Y-80435000D01*
X88900000Y-80435000D02*
X88817000Y-80518000D01*
%TO.N,Net-(LED10-Pad2)*%
X162985000Y-58166000D02*
X152525000Y-58166000D01*
%TO.N,+24V*%
X175897000Y-58166000D02*
X175897000Y-51691000D01*
X177038000Y-50292000D02*
X183642000Y-50292000D01*
X175897000Y-51691000D02*
X175768000Y-51562000D01*
X175768000Y-51562000D02*
X177038000Y-50292000D01*
X183642000Y-50292000D02*
X184912000Y-51562000D01*
X184912000Y-51562000D02*
X184912000Y-70866000D01*
X184912000Y-70866000D02*
X183896000Y-71882000D01*
%TO.N,GND*%
X185928000Y-103505000D02*
X185928000Y-87503000D01*
X183896000Y-105664000D02*
X185928000Y-103632000D01*
X185928000Y-87630000D02*
X185420000Y-87630000D01*
X175814000Y-103840000D02*
X175768000Y-103886000D01*
X175814000Y-99314000D02*
X175814000Y-103840000D01*
X175768000Y-103886000D02*
X177546000Y-105664000D01*
X177546000Y-105664000D02*
X183896000Y-105664000D01*
X185420000Y-87630000D02*
X183642000Y-85852000D01*
%TO.N,Net-(LED22-Pad1)*%
X178137000Y-58166000D02*
X178137000Y-99231000D01*
X178137000Y-99231000D02*
X178054000Y-99314000D01*
%TD*%
M02*
